<?xml version="1.0" encoding="iso-8859-1"?>
<!-- Generator: Adobe Illustrator 23.0.0, SVG Export Plug-In . SVG Version: 6.00 Build 0)  -->
<svg version="1.1" id="&#x56FE;&#x5C42;_1" xmlns="http://www.w3.org/2000/svg" xmlns:xlink="http://www.w3.org/1999/xlink" x="0px"
	 y="0px" viewBox="0 0 1920 1080" style="enable-background:new 0 0 1920 1080;" xml:space="preserve">
<path d="M351.789,438.939c13.248,18.66,38.538,22.984,55.433,9.927c27.221-21.039,41.6-68.765,29.208-100.79
	c-3.591-9.28-10.872-17.109-16.243-25.74c-1.45-2.33-2.096-5.159-1.844-8.298c26.694,17.1,41.164,40.67,39.447,72.458
	c-1.762,32.63-15.014,59.248-44.973,74.306c-25.244,12.688-48.415,6.37-69.021-13.622c-2.855,1.906-5.911,3.711-8.71,5.852
	c-15.631,11.957-32.68,18.151-50.929,7.443c-18.182-10.669-25.634-28.83-23.623-48.879c4.418-44.03,30.244-74.218,67.014-96.199
	c1.606-0.96,4.287-0.123,6.837,1.126c-21.988,14.954-37.399,34.521-47.726,58.041c-7.531,17.151-9.421,35.375-6.904,53.854
	c1.738,12.757,8.991,21.486,21.776,24.821c13.741,3.585,24.281-3.084,33.726-11.673c1.444-1.313,0.313-5.803-0.106-8.756
	c-1.482-10.452-4.494-20.902-4.283-31.3c0.126-6.204,4.05-13.277,8.284-18.236c6.744-7.9,20.147-8.927,28.334-3.562
	c8.876,5.816,9.466,14.973,6.643,23.502c-2.703,8.166-7.612,15.693-12.172,23.12C359.127,430.949,355.141,434.856,351.789,438.939z
	 M345.001,430.219c1.198,0.41,2.396,0.821,3.593,1.231c4.959-9.76,10.667-19.23,14.6-29.387c2.42-6.251,1.859-13.621-7.242-15.34
	c-8.15-1.539-13.861,2.323-15.728,10.054C337.392,408.497,339.748,419.702,345.001,430.219z"/>
</svg>
