<?xml version="1.0" encoding="UTF-8" standalone="no"?>
<!-- Generator: Adobe Illustrator 21.0.2, SVG Export Plug-In . SVG Version: 6.00 Build 0)  -->

<svg version="1.1" id="Layer_1" xmlns="http://www.w3.org/2000/svg" xmlns:xlink="http://www.w3.org/1999/xlink" x="0px" y="0px"
	 viewBox="0 0 480 480" style="enable-background:new 0 0 480 480;" xml:space="preserve">
<style type="text/css">
	.st0{fill:#FFFFFF;}
	.st1{fill:#0C7F99;}
</style>
<path class="st0" d="m 253.84491,129.7685 c 0,4.2 -1.4,8.2 -3.7,11.3 l -30.4,0.3 c -2.6,-3.1 -4,-7.3 -4,-11.6 0,
    -10.5 8.5,-19 19,-19 10.6,-0.1 19.1,8.5 19.1,19 z"/>
<path class="st0" d="m 308.84491,129.7685 c 0,4.2 -1.4,8.2 -3.7,11.3 l -30.4,0.3 c -2.6,-3.1 -4,-7.3 -4,-11.6 0,
    -10.5 8.5,-19 19,-19 10.6,-0.1 19.1,8.5 19.1,19 z"/>
<path d="m 243.48898,118.11257 c -1.3,0.1 -2.3,1.1 -2.3,2.4 0,1.3 1.1,2.4 2.4,2.4 1.3,0 2.4,-1.1 2.4,-2.4 0,
    -1.3 -1.1,-2.4 -2.4,-2.4 0,0 -0.1,0 -0.1,0 l 2.9,-1 c 4.3,0 7.7,3.5 7.7,7.7 0,4.2 -3.5,7.7 -7.7,7.7 -4.2,
    0 -7.7,-3.5 -7.7,-7.7 0,-4.2 3.5,-7.7 7.7,-7.7"/>
<path d="m 298.48898,118.11257 c -1.3,0.1 -2.3,1.1 -2.3,2.4 0,1.3 1.1,2.4 2.4,2.4 1.3,0 2.4,-1.1 2.4,-2.4 0,
    -1.3 -1.1,-2.4 -2.4,-2.4 0,0 -0.1,0 -0.1,0 l 2.9,-1 c 4.3,0 7.7,3.5 7.7,7.7 0,4.2 -3.5,7.7 -7.7,7.7 -4.2,
    0 -7.7,-3.5 -7.7,-7.7 0,-4.2 3.5,-7.7 7.7,-7.7"/>
<path class="st1" d="m 165.88164,255.57479 c -31.09509,-10.7417 -46.78849,-38.34043 -46.20022,-81.24856 0.84824,
    -61.87169 35.88075,-107.697892 84.62566,-110.699333 24.41981,-1.503621 34.57902,1.442197 35.56869,10.31379 0.72538,
    6.502093 0.45378,6.686661 -6.00154,4.078637 -13.31643,-5.379991 -38.12071,2.856758 -54.72046,18.171007 -11.65202,
    10.749659 -26.15505,34.119159 -31.29802,50.432149 -4.80228,15.23231 -5.19891,40.32717 -0.87813,55.55869 4.49218,
    15.8357 19.83909,31.56238 33.87871,34.71702 19.76561,4.44128 48.17729,-2.78107 58.57994,-14.89126 4.21229,
    -4.90366 4.20612,-5.34072 -0.18498,-13.09886 -12.13218,-21.43518 -13.613,-25.73327 -12.21217,-35.44622 4.48851,
    -31.12204 30.41856,-50.54874 54.12951,-40.55363 10.35518,4.36513 15.2986,11.65622 17.93275,26.44912 2.42857,
    13.63833 -4.25986,27.98873 -19.39359,41.61001 -7.14156,6.42784 -12.98464,13.77401 -12.98464,16.32486 0,6.43003 12.84971,
    17.19684 22.89257,19.18176 31.06784,6.14037 73.22592,-22.08841 91.38476,-61.19064 8.7519,-18.84586 11.01923,
    -53.02307 4.67809,-70.51601 -6.90028,-19.035355 -26.50744,-31.232109 -44.21117,-27.501822 -6.5681,1.383942 -7.52691,
    0.89338 -7.52691,-3.851042 0,-11.835271 32.23857,-14.660953 49.02469,-4.296993 11.13473,6.874696 23.2717,
    23.403923 27.68865,37.708817 3.71767,12.04025 3.74441,43.10934 0.0497,57.73001 -8.05778,31.88594 -38.62549,
    73.13728 -63.55962,85.77423 -18.17212,9.20987 -42.56282,9.9142 -59.24534,1.7108 -7.02529,-3.45458 -17.32266,
    -10.97263 -22.88311,-16.70675 -5.56044,-5.73414 -10.78003,-10.42571 -11.59911,-10.42571 -0.81904,0 -5.99212,
    3.84893 -11.49568,8.55317 -17.6512,15.08751 -34.5062,22.4952 -53.21763,23.38883 -9.24238,0.4414 -19.51202,
    -0.13266 -22.82142,-1.27607 z m 104.68041,-58.98748 c 19.71386,-19.1444 23.10906,-34.72572 10.46865,-48.04283 -6.11576,
    -6.44317 -8.53568,-7.42795 -14.93788,-6.07897 -22.87846,4.82064 -36.34857,43.48482 -20.84133,59.82224 7.03389,
    7.41041 13.25175,6.01003 25.31056,-5.70044 z"/>
<path d="m 243.09899,189.54278 c 5.5,0 1.9,0.1 13.5,0 10.3,-0.1 12.4,-0.1 15.7,-0.2 0,0 -0.3,-3.1 -0.3,-3.1 -3.7,
    0.1 -9.3,0.2 -14.7,0.2 -3.9,0 -8.5,0 -14.6,0"/>
</svg>