<?xml version="1.0" encoding="iso-8859-1"?>
<!-- Generator: Adobe Illustrator 23.0.0, SVG Export Plug-In . SVG Version: 6.00 Build 0)  -->
<svg version="1.1" id="Layer_1" xmlns="http://www.w3.org/2000/svg" xmlns:xlink="http://www.w3.org/1999/xlink" x="0px" y="0px"
	 viewBox="0 0 480 480" style="enable-background:new 0 0 480 480;" xml:space="preserve">
<path style="fill:#FFFFFF;" d="M251.6,114.7c0,4.2-1.4,8.2-3.7,11.3l-30.4,0.3c-2.6-3.1-4-7.3-4-11.6c0-10.5,8.5-19,19-19
	C243.1,95.6,251.6,104.2,251.6,114.7z"/>
<path style="fill:#FFFFFF;" d="M306.6,114.7c0,4.2-1.4,8.2-3.7,11.3l-30.4,0.3c-2.6-3.1-4-7.3-4-11.6c0-10.5,8.5-19,19-19
	C298.1,95.6,306.6,104.2,306.6,114.7z"/>
<path d="M238,99.8c-1.3,0.1-2.3,1.1-2.3,2.4s1.1,2.4,2.4,2.4c1.3,0,2.4-1.1,2.4-2.4s-1.1-2.4-2.4-2.4C238.1,99.8,238,99.8,238,99.8
	l2.9-1c4.3,0,7.7,3.5,7.7,7.7s-3.5,7.7-7.7,7.7s-7.7-3.5-7.7-7.7s3.5-7.7,7.7-7.7"/>
<path d="M293,99.8c-1.3,0.1-2.3,1.1-2.3,2.4s1.1,2.4,2.4,2.4s2.4-1.1,2.4-2.4s-1.1-2.4-2.4-2.4H293l2.9-1c4.3,0,7.7,3.5,7.7,7.7
	s-3.5,7.7-7.7,7.7s-7.7-3.5-7.7-7.7s3.5-7.7,7.7-7.7"/>
<path style="fill:#0C7F99;" d="M259.636,185.013c16.126,22.713,46.909,27.976,67.473,12.083
	c33.134-25.609,50.636-83.701,35.552-122.682c-4.371-11.296-13.233-20.825-19.771-31.331c-1.765-2.836-2.551-6.28-2.245-10.1
	c32.492,20.814,50.105,49.504,48.015,88.196c-2.145,39.717-18.275,72.117-54.741,90.446c-30.727,15.444-58.931,7.754-84.013-16.581
	c-3.475,2.32-7.195,4.517-10.602,7.123c-19.026,14.554-39.778,22.093-61.991,9.06c-22.131-12.986-31.202-35.092-28.754-59.496
	c5.378-53.593,36.813-90.338,81.57-117.094c1.955-1.169,5.218-0.15,8.322,1.371c-26.764,18.202-45.522,42.019-58.092,70.648
	c-9.167,20.876-11.467,43.059-8.404,65.551c2.116,15.528,10.944,26.153,26.506,30.212c16.726,4.364,29.555-3.754,41.051-14.208
	c1.758-1.598,0.381-7.063-0.129-10.658c-1.804-12.722-5.47-25.442-5.213-38.098c0.153-7.552,4.93-16.161,10.083-22.197
	c8.209-9.616,24.523-10.866,34.488-4.336c10.804,7.079,11.522,18.225,8.086,28.607c-3.29,9.94-9.265,19.102-14.816,28.142
	C268.568,175.287,263.716,180.043,259.636,185.013z M251.374,174.399c1.458,0.499,2.916,0.999,4.373,1.498
	c6.036-11.88,12.984-23.407,17.771-35.77c2.946-7.609,2.263-16.58-8.815-18.672c-9.92-1.873-16.872,2.828-19.144,12.238
	C242.112,147.959,244.98,161.597,251.374,174.399z"/>
<path style="fill:#FFFFFF;" d="M246.3,149.1c5.5,0,1.9,0.1,13.5,0c10.3-0.1,12.4-0.1,15.7-0.2l-0.3-3.1c-3.7,0.1-9.3,0.2-14.7,0.2
	c-3.9,0-8.5,0-14.6,0"/>
</svg>
